<svg version="1.2" baseProfile="tiny-ps" xmlns="http://www.w3.org/2000/svg" viewBox="0 0 45 32" width="45" height="32">
	<title>Feature</title>
	<style>
		tspan { white-space:pre }
		.shp0 { fill: #f16d7f } 
	</style>
	<g id="Feature">
		<g id="Feature box">
			<path id="Forma 1" class="shp0" d="M11.11 25.42C10.6 25.42 10.18 25.84 10.18 26.36C10.18 26.86 9.78 27.26 9.29 27.26C8.8 27.26 8.4 26.86 8.4 26.36C8.4 25.86 8.8 25.45 9.29 25.45C9.8 25.45 10.22 25.03 10.22 24.51C10.22 23.99 9.8 23.57 9.29 23.57C7.77 23.57 6.54 24.82 6.54 26.36C6.54 27.89 7.77 29.14 9.29 29.14C10.81 29.14 12.04 27.89 12.04 26.36C12.04 25.84 11.62 25.42 11.11 25.42ZM37.58 25.42C37.07 25.42 36.65 25.84 36.65 26.36C36.65 26.86 36.25 27.26 35.76 27.26C35.27 27.26 34.87 26.86 34.87 26.36C34.87 25.86 35.27 25.45 35.76 25.45C36.27 25.45 36.69 25.03 36.69 24.51C36.69 23.99 36.27 23.57 35.76 23.57C34.24 23.57 33.01 24.82 33.01 26.36C33.01 27.89 34.24 29.14 35.76 29.14C37.28 29.14 38.51 27.89 38.51 26.36C38.51 25.84 38.09 25.42 37.58 25.42ZM44.87 13.4L41.31 7.29C40.09 5.23 38.94 4.02 36.63 3.82C36.56 3.8 36.48 3.79 36.39 3.79L29.27 3.79L29.27 1.88C29.27 0.84 28.44 0 27.42 0L1.86 0C0.83 0 0 0.84 0 1.88L0 25.42C0 26.45 0.83 27.3 1.86 27.3L3.79 27.3C4.24 29.96 6.53 32 9.29 32C12.05 32 14.34 29.96 14.78 27.3L30.27 27.3C30.71 29.96 33 32 35.76 32C38.52 32 40.81 29.96 41.26 27.3L44.07 27.3C44.58 27.3 45 26.88 45 26.36L45 13.87C45 13.71 44.96 13.54 44.87 13.4ZM41.33 17C41.33 16.48 41.75 16.06 42.26 16.06L43.14 16.06L43.14 17.91L41.33 17.91L41.33 17ZM42.59 13.18L34.06 13.18C33.99 13.16 33.93 13.16 33.87 13.16C33.34 13.16 32.92 12.73 32.92 12.2L32.92 8.43L39.82 8.43L42.59 13.18ZM1.86 1.88L27.42 1.88L27.42 25.42L14.78 25.42C14.34 22.75 12.05 20.71 9.29 20.71C6.53 20.71 4.24 22.75 3.79 25.42L1.86 25.42L1.86 1.88ZM9.29 30.12C7.24 30.12 5.57 28.43 5.57 26.36C5.57 24.28 7.24 22.59 9.29 22.59C11.34 22.59 13.01 24.28 13.01 26.36C13.01 28.43 11.34 30.12 9.29 30.12ZM35.76 30.12C33.71 30.12 32.04 28.43 32.04 26.36C32.04 24.28 33.71 22.59 35.76 22.59C37.81 22.59 39.48 24.28 39.48 26.36C39.48 28.43 37.81 30.12 35.76 30.12ZM41.26 25.42C40.81 22.75 38.52 20.71 35.76 20.71C33 20.71 30.71 22.75 30.27 25.42L29.27 25.42L29.27 5.67L35.9 5.67C37.08 5.67 37.82 5.92 38.48 6.55L31.99 6.55C31.48 6.55 31.06 6.97 31.06 7.49L31.06 12.2C31.06 13.68 32.2 14.91 33.64 15.03C33.71 15.05 33.79 15.06 33.87 15.06L40.25 15.06C39.77 15.56 39.48 16.25 39.48 17L39.48 18.85C39.48 19.37 39.89 19.79 40.41 19.79L43.14 19.79L43.14 25.42L41.26 25.42L41.26 25.42ZM4.68 5.67L24.59 5.67C25.1 5.67 25.52 5.25 25.52 4.73C25.52 4.21 25.1 3.79 24.59 3.79L4.68 3.79C4.17 3.79 3.75 4.21 3.75 4.73C3.75 5.25 4.17 5.67 4.68 5.67Z" />
		</g>
	</g>
</svg>